<?xml version="1.0" encoding="UTF-8"?>
<!DOCTYPE svg PUBLIC "-//W3C//DTD SVG 1.1//EN" "http://www.w3.org/Graphics/SVG/1.1/DTD/svg11.dtd">
<!-- Creator: CorelDRAW -->
<svg xmlns="http://www.w3.org/2000/svg" xml:space="preserve" width="297mm" height="210mm" version="1.1" style="shape-rendering:geometricPrecision; text-rendering:geometricPrecision; image-rendering:optimizeQuality; fill-rule:evenodd; clip-rule:evenodd"
viewBox="0 0 29700 21000"
 xmlns:xlink="http://www.w3.org/1999/xlink"
 xmlns:xodm="http://www.corel.com/coreldraw/odm/2003"
 xmlns:v="https://svgstorm.com">
 <defs>
  <style type="text/css">
   <![CDATA[
    .fil0 {fill:#FEFEFE;fill-rule:nonzero}
    .fil1 {fill:#EC268F;fill-rule:nonzero}
   ]]>
  </style>
 </defs>
 <g id="Layer_x0020_1">
  <metadata id="CorelCorpID_0Corel-Layer"/>
  <g id="_2818296723680">
   <path class="fil0" d="M3496.63 8238.99c75.54,0 186.48,95.6 332.83,286.8 146.35,191.19 219.52,402.46 219.52,633.78 0,118.03 -155.79,430.79 -467.37,940.65 -311.58,509.86 -549.99,967.79 -715.22,1373.79 -221.89,-343.45 -444.95,-762.43 -669.2,-1256.95 -224.24,-493.34 -383.57,-812 -477.99,-955.99 -94.42,-142.81 -245.49,-214.8 -453.21,-214.8 -33.05,0 -119.21,24.78 -258.47,74.35 -139.27,49.57 -241.95,95.6 -308.05,138.09 94.42,-155.79 263.2,-343.45 506.33,-562.97 243.12,-219.52 421.34,-329.29 534.64,-329.29 212.44,0 467.37,323.39 764.79,970.16 297.42,645.59 512.23,1049.23 644.41,1208.56 66.1,-79.08 135.73,-207.72 208.9,-383.58 73.18,-175.85 109.77,-355.25 109.77,-539.37 0,-182.93 -46.03,-334 -138.09,-454.39 -92.06,-119.2 -234.87,-240.76 -428.43,-362.33 51.93,-100.32 140.45,-219.52 265.56,-358.79 125.1,-138.09 234.86,-207.72 329.28,-207.72z"/>
   <path class="fil0" d="M5439.66 9352.55l0 1659.76c2.99,38.88 22.43,58.32 58.32,58.32 26.91,0 59.06,-9.72 96.44,-29.16 37.38,-19.44 97.94,-53.08 181.68,-100.93 -38.88,80.74 -103.92,159.99 -195.14,237.75 -91.21,77.75 -178.68,116.63 -262.42,116.63 -47.85,0 -109.9,-32.9 -186.16,-98.69 -76.26,-65.79 -114.39,-154.01 -114.39,-264.66l0 -242.24c-182.42,182.42 -336.44,328.96 -462.04,439.61 -125.61,110.65 -234.76,165.98 -327.47,165.98 -101.68,0 -192.14,-59.81 -271.39,-179.43 -79.25,-119.63 -118.88,-279.62 -118.88,-479.99 0,-406.72 112.15,-722.22 336.44,-946.52 224.29,-224.29 515.87,-336.43 874.74,-336.43l390.27 0zm-1170.81 942.02c0,146.54 23.93,254.2 71.78,322.99 47.85,68.78 113.64,103.17 197.37,103.17 71.78,0 148.79,-21.68 231.03,-65.04 82.24,-43.37 165.22,-102.43 248.96,-177.2l0 -1000.34c-224.29,0 -405.22,82.99 -542.79,248.96 -137.56,165.98 -206.35,355.13 -206.35,567.46z"/>
   <path class="fil0" d="M6257.59 9330.12c82.99,0 135.32,39.62 157.75,118.87 22.43,79.25 33.64,217.57 33.64,414.94l0 201.87c114.39,-158.5 229.53,-317 346.91,-475.5 147.29,-173.46 293.08,-260.18 437.37,-260.18 80.75,0 144.3,29.15 191.4,87.47 46.35,58.32 69.53,129.34 69.53,213.08 0,101.68 -56.82,214.57 -170.47,338.68 -113.64,124.11 -225.78,239.99 -336.43,347.65 14.2,-29.9 28.41,-79.99 44.11,-150.27 15.7,-70.28 23.17,-132.33 23.17,-186.16 0,-65.8 -11.21,-119.63 -33.64,-161.5 -22.43,-41.86 -60.56,-62.8 -114.39,-62.8 -56.82,0 -127.85,51.59 -213.08,154.76 -85.23,103.18 -166.72,207.1 -244.48,311.77l0 835.12c-50.09,47.85 -109.15,96.44 -177.19,145.79 -68.03,48.59 -146.53,79.25 -235.5,91.21l0 -1480.33c0,-62.8 -29.91,-94.2 -89.72,-94.2 -26.92,0 -58.32,9.72 -94.2,29.15 -35.89,19.44 -76.26,51.59 -121.12,96.45 47.85,-98.69 132.33,-209.34 254.2,-331.95 121.86,-122.62 212.33,-183.92 272.14,-183.92z"/>
   <path class="fil0" d="M8144.63 9330.12c92.71,0 157.76,35.88 195.14,107.66 37.38,71.77 56.07,157 56.07,255.69l0 1260.52c11.96,83.74 43.36,125.61 94.2,125.61 35.89,0 77.76,-19.44 125.61,-58.32 47.85,-38.87 79.25,-64.29 94.2,-76.26 -71.77,121.87 -144.29,210.84 -217.56,266.16 -73.27,56.08 -156.26,83.74 -248.97,83.74 -77.75,0 -140.55,-32.9 -188.4,-98.69 -47.85,-65.04 -71.78,-142.8 -71.78,-232.52l0 -1319.58c0,-56.82 -20.93,-85.23 -62.8,-85.23 -56.82,0 -145.04,50.83 -264.66,152.51 14.95,-56.82 76.26,-134.57 183.92,-233.26 107.66,-98.69 209.34,-148.03 305.03,-148.03z"/>
   <path class="fil0" d="M9916.56 9334.6c116.63,0 213.08,20.94 289.33,62.8 76.26,41.87 180.19,129.35 311.77,260.93l-1090.06 1093.8c59.81,98.69 133.83,162.24 222.05,190.65 88.22,28.41 187.66,42.62 298.31,42.62 110.65,0 214.57,-26.17 311.77,-77.76 97.19,-51.59 184.66,-106.91 262.42,-164.48 -119.63,183.92 -251.21,321.49 -394.76,413.45 -143.54,91.96 -308.03,138.31 -493.44,138.31 -266.16,0 -454.57,-85.23 -565.22,-256.44 -110.65,-170.46 -165.97,-355.13 -165.97,-552.51 0,-348.4 97.19,-626.52 291.58,-836.61 194.38,-210.09 435.12,-314.76 722.22,-314.76zm-529.33 1314.36c104.67,-102.43 209.34,-204.11 314.01,-306.54 158.5,-171.21 237.75,-300.55 237.75,-387.27 0,-105.42 -25.42,-186.92 -76.26,-245.23 -50.84,-59.06 -118.13,-88.22 -201.87,-88.22 -104.67,0 -186.91,62.05 -246.72,186.91 -59.81,124.85 -89.71,272.89 -89.71,444.1 0,71.77 4.48,139.81 13.45,204.85 8.97,64.3 25.42,128.59 49.35,191.4z"/>
   <path class="fil0" d="M11275.78 9348.06l367.84 0c-38.88,86.73 -93.46,139.06 -163.74,158.5 -70.27,19.44 -138.31,30.65 -204.1,33.64l0 1355.48c0,65.79 25.42,98.69 76.26,98.69 41.87,0 94.95,-20.19 159.25,-59.81 64.29,-39.63 141.3,-100.19 231.02,-182.43 -83.74,157.01 -182.43,287.1 -296.07,389.52 -113.64,102.43 -228.78,153.27 -345.41,153.27 -89.72,0 -151.77,-36.64 -186.16,-109.9 -34.39,-72.53 -51.59,-203.36 -51.59,-391.02l0 -1252.3 -264.67 0c8.98,-68.78 88.97,-145.04 240,-230.27 151.02,-85.24 296.81,-306.54 437.37,-664.66l0 701.29z"/>
  </g>
  <g id="_2818296724640">
   <path class="fil1" d="M8202.95 8352.2c74.76,0 137.57,26.92 188.41,80.75 50.84,53.83 76.25,127.1 76.25,219.8 0,104.67 -44.85,186.91 -134.57,246.73 -89.72,59.81 -170.46,89.71 -242.24,89.71 -62.8,0 -109.9,-33.64 -141.3,-100.93 -31.4,-67.29 -47.1,-145.79 -47.1,-235.51 0,-113.64 26.91,-192.14 80.74,-235.5 53.83,-43.37 127.1,-65.05 219.81,-65.05z"/>
   <path class="fil1" d="M13514.22 9253.86c44.86,0 116.63,62.8 215.32,188.4 98.69,125.61 148.04,260.18 148.04,403.73 0,71.77 -108.41,299.06 -324.48,681.85 -216.07,382.79 -378.31,684.09 -486.72,903.9 -108.4,219.8 -162.23,417.93 -162.23,594.37 0,146.54 42.61,278.13 128.59,394.76 85.23,116.63 198.87,174.95 340.18,174.95 117.38,0 207.84,-30.66 272.89,-91.96 64.29,-61.31 130.09,-169.72 195.88,-325.23 0,230.28 -68.04,387.28 -204.11,471.02 -136.07,83.73 -293.82,125.6 -473.25,125.6 -233.27,0 -403.73,-38.13 -511.39,-114.39 -107.66,-76.26 -161.49,-213.08 -161.49,-410.45 0,-158.5 47.1,-313.27 141.3,-464.29 94.2,-151.02 226.54,-338.68 397,-562.97 -53.83,-119.63 -127.85,-284.11 -222.05,-493.45 -94.2,-209.34 -198.13,-417.18 -311.77,-623.53 -113.64,-206.35 -189.15,-314.01 -226.53,-322.98 -37.38,-8.97 -71.03,-13.46 -100.93,-13.46 -68.79,0 -140.56,15.7 -215.32,47.1 -74.77,31.4 -146.54,68.04 -215.33,109.9 86.73,-134.57 193.64,-268.4 320.74,-401.48 127.1,-133.08 241.49,-199.62 343.17,-199.62 137.57,0 305.79,211.58 504.66,634.75 198.87,423.16 335.69,685.59 410.45,787.27 47.85,-86.73 94.21,-183.18 139.07,-289.34 44.85,-106.17 67.28,-214.57 67.28,-325.23 0,-122.61 -30.65,-226.53 -91.96,-311.76 -61.3,-85.23 -151.77,-154.76 -271.39,-208.59 44.86,-80.75 94.2,-160.75 148.03,-240 53.83,-79.25 122.62,-118.87 206.35,-118.87z"/>
  </g>
  <path class="fil0" d="M16214.72 8352.2l1040.72 0c-128.6,53.83 -234.02,121.87 -316.26,204.11 -82.24,82.24 -123.36,183.17 -123.36,302.79l0 1233.61c218.31,-176.44 429.15,-314.01 632.51,-412.7 203.36,-98.69 399.24,-164.48 587.64,-197.37l0 -578.68c0,-143.55 -25.42,-251.95 -76.26,-325.22 -50.84,-73.27 -167.47,-148.78 -349.89,-226.54l1417.53 0c-185.42,53.83 -299.81,134.58 -343.17,242.24 -43.36,107.66 -69.53,210.83 -78.5,309.52l0 533.82c171.95,26.91 284.85,61.3 337.18,103.17 53.09,41.87 91.96,116.63 115.89,224.29 -88.22,-77.75 -157.75,-128.59 -207.85,-152.51 -50.84,-23.93 -132.33,-35.89 -245.22,-35.89l0 1420.52c0,117.38 39.62,216.07 118.87,296.81 80,81.49 180.93,145.79 302.8,193.64l-1386.13 0c124.11,-50.84 220.55,-116.63 290.08,-198.12 69.53,-80.75 104.67,-177.94 104.67,-292.33l0 -1375.66c-231.02,44.86 -491.94,196.63 -783.52,453.82 -290.84,257.93 -436.63,529.33 -436.63,814.18 0,195.13 36.64,329.71 109.91,404.47 73.26,75.51 174.2,139.81 302.79,193.64l-1408.56 0c116.64,-47.85 218.32,-121.12 305.04,-219.81 86.73,-99.43 130.09,-210.08 130.09,-332.7l0 -2224.23c0,-74.76 -23.18,-130.84 -69.53,-168.22 -46.35,-37.38 -111.4,-56.07 -195.13,-56.07 -161.49,0 -320.74,58.31 -477.75,174.95 -157,116.63 -235.5,308.02 -235.5,574.18 0,272.15 58.31,500.18 174.94,684.1 116.64,183.92 305.04,344.66 565.22,482.23 -331.95,0 -575.68,-98.69 -731.19,-296.07 -155.51,-197.38 -233.27,-436.62 -233.27,-717.74 0,-325.97 115.89,-580.17 347.66,-762.59 231.77,-182.43 503.16,-273.64 814.18,-273.64z"/>
  <path id="_1" class="fil0" d="M20274.42 9334.6c116.63,0 213.08,20.94 289.33,62.8 76.26,41.87 180.19,129.35 311.77,260.93l-1090.06 1093.8c59.81,98.69 133.83,162.24 222.05,190.65 88.22,28.41 187.66,42.62 298.31,42.62 110.65,0 214.57,-26.17 311.77,-77.76 97.19,-51.59 184.66,-106.91 262.42,-164.48 -119.63,183.92 -251.21,321.49 -394.76,413.45 -143.54,91.96 -308.03,138.31 -493.44,138.31 -266.16,0 -454.57,-85.23 -565.22,-256.44 -110.65,-170.46 -165.97,-355.13 -165.97,-552.51 0,-348.4 97.19,-626.52 291.58,-836.61 194.38,-210.09 435.12,-314.76 722.22,-314.76zm-529.33 1314.36c104.67,-102.43 209.34,-204.11 314.01,-306.54 158.5,-171.21 237.75,-300.55 237.75,-387.27 0,-105.42 -25.42,-186.92 -76.26,-245.23 -50.84,-59.06 -118.13,-88.22 -201.87,-88.22 -104.67,0 -186.91,62.05 -246.72,186.91 -59.81,124.85 -89.71,272.89 -89.71,444.1 0,71.77 4.48,139.81 13.45,204.85 8.97,64.3 25.42,128.59 49.35,191.4z"/>
  <path id="_2" class="fil0" d="M22701.26 9352.55l0 1659.76c2.99,38.88 22.43,58.32 58.32,58.32 26.91,0 59.06,-9.72 96.44,-29.16 37.38,-19.44 97.94,-53.08 181.68,-100.93 -38.88,80.74 -103.92,159.99 -195.14,237.75 -91.21,77.75 -178.68,116.63 -262.42,116.63 -47.85,0 -109.9,-32.9 -186.16,-98.69 -76.26,-65.79 -114.39,-154.01 -114.39,-264.66l0 -242.24c-182.42,182.42 -336.44,328.96 -462.04,439.61 -125.61,110.65 -234.76,165.98 -327.47,165.98 -101.68,0 -192.14,-59.81 -271.39,-179.43 -79.25,-119.63 -118.88,-279.62 -118.88,-479.99 0,-406.72 112.15,-722.22 336.44,-946.52 224.29,-224.29 515.87,-336.43 874.74,-336.43l390.27 0zm-1170.81 942.02c0,146.54 23.93,254.2 71.78,322.99 47.85,68.78 113.64,103.17 197.37,103.17 71.78,0 148.79,-21.68 231.03,-65.04 82.24,-43.37 165.22,-102.43 248.96,-177.2l0 -1000.34c-224.29,0 -405.22,82.99 -542.79,248.96 -137.56,165.98 -206.35,355.13 -206.35,567.46z"/>
  <path id="_3" class="fil0" d="M24746.81 9262.83c47.84,0 118.12,60.56 210.83,181.68 92.71,121.11 139.06,254.94 139.06,401.48 0,74.76 -98.69,272.89 -296.06,595.87 -197.38,322.98 -348.41,613.07 -453.08,870.26 -140.55,-217.57 -281.86,-482.98 -423.91,-796.24 -142.05,-312.52 -242.98,-514.38 -302.79,-605.59 -59.81,-90.47 -155.51,-136.07 -287.1,-136.07 -20.93,0 -75.51,15.7 -163.73,47.1 -88.22,31.4 -153.27,60.56 -195.14,87.47 59.82,-98.69 166.73,-217.56 320.74,-356.62 154.02,-139.06 266.91,-208.6 338.68,-208.6 134.58,0 296.07,204.86 484.48,614.57 188.4,408.96 324.47,664.65 408.21,765.58 41.87,-50.09 85.98,-131.58 132.33,-242.98 46.36,-111.4 69.53,-225.04 69.53,-341.67 0,-115.89 -29.16,-211.59 -87.47,-287.85 -58.32,-75.51 -148.78,-152.52 -271.4,-229.52 32.9,-63.55 88.97,-139.06 168.22,-227.29 79.25,-87.47 148.78,-131.58 208.6,-131.58z"/>
  <path id="_4" class="fil0" d="M26321.34 9334.6c116.63,0 213.08,20.94 289.33,62.8 76.26,41.87 180.19,129.35 311.77,260.93l-1090.06 1093.8c59.81,98.69 133.83,162.24 222.05,190.65 88.22,28.41 187.66,42.62 298.31,42.62 110.65,0 214.57,-26.17 311.77,-77.76 97.19,-51.59 184.66,-106.91 262.42,-164.48 -119.63,183.92 -251.21,321.49 -394.76,413.45 -143.54,91.96 -308.03,138.31 -493.44,138.31 -266.16,0 -454.57,-85.23 -565.22,-256.44 -110.65,-170.46 -165.97,-355.13 -165.97,-552.51 0,-348.4 97.19,-626.52 291.58,-836.61 194.38,-210.09 435.12,-314.76 722.22,-314.76zm-529.33 1314.36c104.67,-102.43 209.34,-204.11 314.01,-306.54 158.5,-171.21 237.75,-300.55 237.75,-387.27 0,-105.42 -25.42,-186.92 -76.26,-245.23 -50.84,-59.06 -118.13,-88.22 -201.87,-88.22 -104.67,0 -186.91,62.05 -246.72,186.91 -59.81,124.85 -89.71,272.89 -89.71,444.1 0,71.77 4.48,139.81 13.45,204.85 8.97,64.3 25.42,128.59 49.35,191.4z"/>
  <path id="_5" class="fil0" d="M28680.89 10989.88c0,65.79 22.43,98.69 68.04,98.69 60.56,0 144.29,-49.34 250.46,-148.03 -59.07,112.14 -133.83,199.62 -223.55,261.67 -90.46,62.06 -171.21,92.71 -241.48,92.71 -80,0 -144.3,-24.67 -192.9,-74.02 -48.59,-49.34 -73.27,-124.11 -73.27,-225.79l0 -1006.32c0,-68.78 -7.47,-122.61 -22.42,-162.99 -15.71,-40.37 -57.57,-60.56 -127.85,-60.56 -75.51,0 -175.7,78.51 -299.81,235.51 -124.85,157.01 -186.91,248.97 -186.91,275.88l0 758.86c-14.95,62.8 -65.79,121.86 -153.26,176.44 -87.48,55.33 -173.46,82.99 -259.43,82.99l0 -1529.68c0,-47.84 -17.95,-71.77 -53.83,-71.77 -44.86,0 -130.09,40.37 -255.7,121.12 112.9,-143.55 216.07,-256.44 309.53,-338.68 94.2,-82.24 167.47,-123.36 221.3,-123.36 82.99,0 135.32,45.6 157.75,136.81 22.43,91.22 33.64,232.52 33.64,423.92l0 165.97c115.89,-182.42 239.25,-349.14 368.59,-500.17 129.34,-151.02 265.41,-226.53 408.96,-226.53 109.9,0 183.17,37.38 218.31,112.14 35.89,74.77 53.83,186.91 53.83,336.44 0,44.86 0,88.97 0,132.33 0,43.37 0,87.48 0,132.34 0,86.72 0,178.68 0,275.88 0,97.19 0,214.57 0,352.14 0,77.75 0,145.79 0,204.1 0,58.32 0,88.97 0,91.96z"/>
 </g>
</svg>
